<svg width="13" height="9" viewBox="0 0 13 9" fill="none" xmlns="http://www.w3.org/2000/svg">
<path fill-rule="evenodd" clip-rule="evenodd" d="M12.4402 0.639307C12.6394 0.830544 12.6459 1.14706 12.4546 1.34627L9.09463 4.84627C9.00034 4.94448 8.87008 5 8.73393 5C8.59779 5 8.46753 4.94448 8.37324 4.84627L6.33393 2.72199L3.91729 5.23933L5.63906 6.89223L0.0939331 8.5L1.47413 2.8939L3.1959 4.5468L5.97324 1.65373C6.06753 1.55552 6.19779 1.5 6.33393 1.5C6.47008 1.5 6.60034 1.55552 6.69463 1.65373L8.73393 3.77801L11.7332 0.653735C11.9245 0.454529 12.241 0.44807 12.4402 0.639307Z" fill="#F1416C"/>
</svg>
