<svg width="14" height="8" viewBox="0 0 14 8" fill="none" xmlns="http://www.w3.org/2000/svg">
<path fill-rule="evenodd" clip-rule="evenodd" d="M7.54881 1.60777L13.0939 0L11.7137 5.6061L9.99197 3.9532L7.21463 6.84627C7.12034 6.94448 6.99008 7 6.85393 7C6.71779 7 6.58753 6.94448 6.49324 6.84627L4.45393 4.72199L1.45463 7.84627C1.26339 8.04547 0.946873 8.05193 0.747668 7.86069C0.548462 7.66946 0.542003 7.35294 0.73324 7.15373L4.09324 3.65373C4.18753 3.55552 4.31779 3.5 4.45393 3.5C4.59008 3.5 4.72034 3.55552 4.81463 3.65373L6.85393 5.77801L9.27058 3.26067L7.54881 1.60777Z" fill="#50CD89"/>
</svg>
