<svg width="86" height="86" viewBox="0 0 86 86" fill="none" xmlns="http://www.w3.org/2000/svg">
<g clip-path="url(#clip0_1_2005)">
<path d="M45.5195 19.5178V32.9219C45.5195 34.3327 44.4111 35.4414 43 35.4414C41.5889 35.4414 40.4805 34.3327 40.4805 32.9219V19.5178C40.4805 18.1574 41.5889 16.9983 43 16.9983C44.4111 16.9983 45.5195 18.1574 45.5195 19.5178Z" fill="#FF884D"/>
<path d="M45.5195 19.5178V32.9219C45.5195 34.3327 44.4111 35.4414 43 35.4414V16.9983C44.4111 16.9983 45.5195 18.1574 45.5195 19.5178Z" fill="#FF4D4D"/>
<path d="M43 63.1562H10.2461V83.4805H43H75.7539V63.1562H43Z" fill="#965C85"/>
<path d="M43 63.1562H75.7539V83.4805H43V63.1562Z" fill="#965C85"/>
<path d="M43 37.9609H20.3242V58.1172C20.3242 59.528 21.4326 60.6367 22.8438 60.6367H43H63.1562C64.5674 60.6367 65.6758 59.528 65.6758 58.1172V37.9609H43Z" fill="#965C85"/>
<path d="M65.6758 58.1172V37.9609H43V60.6367H63.1562C64.5674 60.6367 65.6758 59.528 65.6758 58.1172Z" fill="#965C85"/>
<path d="M86 83.4805C86 84.8912 84.8916 86 83.4805 86H2.51953C1.10843 86 0 84.8912 0 83.4805C0 82.0694 1.10843 80.9609 2.51953 80.9609H83.4805C84.8916 80.9609 86 82.0694 86 83.4805Z" fill="#FFC700"/>
<path d="M7.55859 20.3242H2.51953C1.1269 20.3242 0 19.1973 0 17.8047C0 16.4121 1.1269 15.2852 2.51953 15.2852H7.55859C8.95122 15.2852 10.0781 16.4121 10.0781 17.8047C10.0781 19.1973 8.95122 20.3242 7.55859 20.3242Z" fill="#FFEA80"/>
<path d="M2.87883 32.2675C2.34737 30.9832 2.9576 29.5067 4.24189 28.9753L8.89715 27.0463C10.1913 26.5223 11.6579 27.13 12.1893 28.4094C12.7208 29.6937 12.1106 31.1701 10.8263 31.7016L6.17101 33.6305C4.89697 34.158 3.41851 33.564 2.87883 32.2675Z" fill="#FFEA80"/>
<path d="M8.89715 8.56305L4.24189 6.63409C2.9576 6.10264 2.34737 4.62636 2.87883 3.34191C3.41515 2.0551 4.89143 1.44739 6.17101 1.97884L10.8263 3.90779C12.1106 4.43925 12.7208 5.91552 12.1893 7.19998C11.6507 8.49384 10.1744 9.09198 8.89715 8.56305Z" fill="#FFEA80"/>
<path d="M83.4805 20.3242H78.4414C77.0488 20.3242 75.9219 19.1973 75.9219 17.8047C75.9219 16.4121 77.0488 15.2852 78.4414 15.2852H83.4805C84.8731 15.2852 86 16.4121 86 17.8047C86 19.1973 84.8731 20.3242 83.4805 20.3242Z" fill="#FFD24D"/>
<path d="M79.8292 33.6305L75.1739 31.7016C73.8896 31.1701 73.2794 29.6939 73.8108 28.4094C74.3472 27.1201 75.8285 26.5223 77.103 27.0463L81.7583 28.9753C83.0426 29.5067 83.6528 30.983 83.1213 32.2675C82.5827 33.5612 81.1064 34.1593 79.8292 33.6305Z" fill="#FFD24D"/>
<path d="M73.8108 7.19997C73.2794 5.91568 73.8896 4.43924 75.1739 3.90778L79.8292 1.97883C81.1234 1.4499 82.5899 2.05996 83.1213 3.3419C83.6528 4.62619 83.0426 6.10263 81.7583 6.63409L77.1029 8.56304C75.829 9.09063 74.3505 8.49669 73.8108 7.19997Z" fill="#FFD24D"/>
<path d="M55.7896 9.85003C55.4943 8.93712 54.702 8.27281 53.7572 8.13507L47.8618 7.27877L45.1995 1.30647C44.7984 0.449328 43.9047 0.0263827 42.9998 0.0011874C42.0402 -0.0258556 41.0684 0.39709 40.6427 1.30647L37.9804 7.27877L32.085 8.13507C31.1402 8.27281 30.3479 8.93712 30.0526 9.85003C29.7573 10.7604 30.0034 11.7619 30.6924 12.431L34.9786 16.6115L33.965 22.5117C33.8025 23.4565 34.1914 24.4112 34.9689 24.9771C35.7464 25.5381 36.7749 25.6119 37.6213 25.1666L43 22.4227L48.2211 25.1664C49.0823 25.6201 50.1089 25.5309 50.8734 24.977C51.6509 24.4111 52.0397 23.4563 51.8773 22.5115L50.8636 16.6113L55.1498 12.4309C55.8389 11.7617 56.0848 10.7604 55.7896 9.85003Z" fill="#FFC700"/>
<path d="M50.8734 24.977C51.6509 24.4111 52.0397 23.4563 51.8773 22.5115L50.8636 16.6113L55.1498 12.4309C55.8388 11.7617 56.0848 10.7602 55.7896 9.84985C55.4943 8.93694 54.702 8.27263 53.7572 8.13489L47.8618 7.27859L45.1995 1.30629C44.7984 0.449148 43.9047 0.0262024 42.9998 0.00100708V22.4225L48.221 25.1663C49.0823 25.6201 50.1089 25.5309 50.8734 24.977Z" fill="#FFC700"/>
<path d="M73.2344 55.5977H43H12.7656C11.3545 55.5977 10.2461 56.7061 10.2461 58.1172V63.1562C10.2461 67.3385 13.6221 70.7148 17.8047 70.7148C19.7699 70.7148 21.483 69.9588 22.8438 68.7496C24.2045 69.959 25.9176 70.7148 27.8828 70.7148C29.848 70.7148 31.5612 69.9588 32.9219 68.7496C34.2826 69.959 35.9957 70.7148 37.9609 70.7148C39.9262 70.7148 41.6393 69.9588 43 68.7496C44.3607 69.959 46.0738 70.7148 48.0391 70.7148C50.0043 70.7148 51.7174 69.9588 53.0781 68.7496C54.4388 69.959 56.152 70.7148 58.1172 70.7148C60.0824 70.7148 61.7955 69.9588 63.1562 68.7496C64.517 69.959 66.2301 70.7148 68.1953 70.7148C72.3779 70.7148 75.7539 67.3385 75.7539 63.1562V58.1172C75.7539 56.7061 74.6455 55.5977 73.2344 55.5977Z" fill="#FFF8DD"/>
<path d="M53.0781 68.7496C54.4388 69.959 56.152 70.7148 58.1172 70.7148C60.0824 70.7148 61.7955 69.9588 63.1562 68.7496C64.517 69.959 66.2301 70.7148 68.1953 70.7148C72.3779 70.7148 75.7539 67.3385 75.7539 63.1562V58.1172C75.7539 56.7061 74.6455 55.5977 73.2344 55.5977H43V68.7496C44.3607 69.959 46.0738 70.7148 48.0391 70.7148C50.0043 70.7148 51.7174 69.9588 53.0781 68.7496Z" fill="#FFF8DD"/>
<path d="M63.1562 30.4023H43H22.8438C21.4326 30.4023 20.3242 31.5108 20.3242 32.9219V37.9609C20.3242 42.1432 23.7002 45.5195 27.8828 45.5195C29.848 45.5195 31.5612 44.7635 32.9219 43.5543C34.2826 44.7637 35.9957 45.5195 37.9609 45.5195C39.9262 45.5195 41.6393 44.7635 43 43.5543C44.3607 44.7637 46.0738 45.5195 48.0391 45.5195C50.0043 45.5195 51.7174 44.7635 53.0781 43.5543C54.4388 44.7637 56.152 45.5195 58.1172 45.5195C62.2998 45.5195 65.6758 42.1432 65.6758 37.9609V32.9219C65.6758 31.5108 64.5674 30.4023 63.1562 30.4023Z" fill="#FFF8DD"/>
<path d="M53.0781 43.5543C54.4388 44.7637 56.152 45.5195 58.1172 45.5195C62.2998 45.5195 65.6758 42.1432 65.6758 37.9609V32.9219C65.6758 31.5108 64.5674 30.4023 63.1562 30.4023H43V43.5543C44.3607 44.7637 46.0738 45.5195 48.0391 45.5195C50.0043 45.5195 51.7174 44.7635 53.0781 43.5543Z" fill="#FFF8DD"/>
<path d="M86 83.4805C86 84.8912 84.8916 86 83.4805 86H43V80.9609H83.4805C84.8916 80.9609 86 82.0694 86 83.4805Z" fill="#FFC700"/>
</g>
<defs>
<clipPath id="clip0_1_2005">
<rect width="86" height="86" fill="white"/>
</clipPath>
</defs>
</svg>
