<svg width="13" height="4" viewBox="0 0 13 4" fill="none" xmlns="http://www.w3.org/2000/svg">
<path fill-rule="evenodd" clip-rule="evenodd" d="M0.794128 2.00001C0.794128 1.26401 1.39146 0.666672 2.12746 0.666672C2.86346 0.666672 3.46079 1.26401 3.46079 2.00001C3.46079 2.736 2.86346 3.33334 2.12746 3.33334C1.39146 3.33334 0.794128 2.736 0.794128 2.00001ZM6.79413 0.666672C6.05813 0.666672 5.46079 1.26401 5.46079 2.00001C5.46079 2.736 6.05813 3.33334 6.79413 3.33334C7.53013 3.33334 8.12746 2.736 8.12746 2.00001C8.12746 1.26401 7.53013 0.666672 6.79413 0.666672ZM11.4608 0.666672C10.7248 0.666672 10.1275 1.26401 10.1275 2.00001C10.1275 2.736 10.7248 3.33334 11.4608 3.33334C12.1968 3.33334 12.7941 2.736 12.7941 2.00001C12.7941 1.26401 12.1968 0.666672 11.4608 0.666672Z" fill="#0C050A"/>
</svg>
