<svg width="17" height="16" viewBox="0 0 17 16" fill="none" xmlns="http://www.w3.org/2000/svg">
<path d="M8.00346 0.419525C9.86668 0.419525 11.3863 1.91306 11.3863 3.75184V7.34683L6.80459 7.34683C6.47624 7.34683 6.21661 7.60201 6.21661 7.92473C6.21661 8.23995 6.47624 8.50264 6.80459 8.50264L11.3863 8.50264L11.3863 12.0901C11.3863 13.9289 9.86668 15.4299 7.98819 15.4299H4.2694C2.39855 15.4299 0.878967 13.9364 0.878967 12.0976L0.878967 3.75934C0.878967 1.91306 2.40619 0.419525 4.27704 0.419525L8.00346 0.419525ZM13.2927 5.33559C13.5179 5.10293 13.8856 5.10293 14.1108 5.32808L16.3023 7.5121C16.4149 7.62468 16.4749 7.76727 16.4749 7.92488C16.4749 8.07499 16.4149 8.22509 16.3023 8.33016L14.1108 10.5142C13.9982 10.6268 13.8481 10.6868 13.7055 10.6868C13.5554 10.6868 13.4053 10.6268 13.2927 10.5142C13.0676 10.289 13.0676 9.92127 13.2927 9.69611L14.4936 8.50278H11.3864V7.34698L14.4936 7.34698L13.2927 6.15365C13.0676 5.9285 13.0676 5.56074 13.2927 5.33559Z" fill="white"/>
</svg>
