<svg width="16" height="17" viewBox="0 0 16 17" fill="none" xmlns="http://www.w3.org/2000/svg">
<g clip-path="url(#clip0_11_2498)">
<path d="M8.60622 16.638C4.38747 16.638 0.959351 13.2068 0.959351 8.99115C0.959351 4.77552 4.3906 1.34427 8.60622 1.34427C8.86247 1.34427 9.11872 1.35677 9.37497 1.38177C9.59997 1.40364 9.79685 1.54427 9.8906 1.74739C9.98435 1.95052 9.9656 2.19114 9.8406 2.37864C9.12185 3.43489 8.7406 4.66927 8.7406 5.9474C8.7406 9.22865 11.2 11.9536 14.4656 12.2786C14.6906 12.3005 14.8875 12.4411 14.9812 12.6443C15.0781 12.8474 15.0562 13.088 14.9312 13.2755C13.5 15.3818 11.1375 16.638 8.60622 16.638ZM8.2156 2.63802C4.88747 2.84114 2.2406 5.61302 2.2406 8.99115C2.2406 12.5005 5.09685 15.3568 8.60622 15.3568C10.3687 15.3568 12.0312 14.6255 13.225 13.3661C11.7812 13.0005 10.4718 12.2161 9.44997 11.0974C8.1656 9.6849 7.45622 7.8599 7.45622 5.95365C7.45935 4.79427 7.71872 3.66615 8.2156 2.63802Z" fill="#999699"/>
</g>
<defs>
<clipPath id="clip0_11_2498">
<rect width="16" height="16" fill="white" transform="translate(0 0.99115)"/>
</clipPath>
</defs>
</svg>
