<svg width="16" height="17" viewBox="0 0 16 17" fill="none" xmlns="http://www.w3.org/2000/svg">
<g clip-path="url(#clip0_11_2487)">
<path d="M8 12.9912C10.2091 12.9912 12 11.2003 12 8.99115C12 6.78201 10.2091 4.99115 8 4.99115C5.79086 4.99115 4 6.78201 4 8.99115C4 11.2003 5.79086 12.9912 8 12.9912Z" stroke="#1F0D1A" stroke-width="1.5" stroke-linecap="round" stroke-linejoin="round"/>
<path d="M14.6667 8.99115H15.3334" stroke="#1F0D1A" stroke-width="1.5" stroke-linecap="round" stroke-linejoin="round"/>
<path d="M8 2.32432V1.65765" stroke="#1F0D1A" stroke-width="1.5" stroke-linecap="round" stroke-linejoin="round"/>
<path d="M8 16.3243V15.6577" stroke="#1F0D1A" stroke-width="1.5" stroke-linecap="round" stroke-linejoin="round"/>
<path d="M13.3334 14.3243L12.6667 13.6577" stroke="#1F0D1A" stroke-width="1.5" stroke-linecap="round" stroke-linejoin="round"/>
<path d="M13.3334 3.65765L12.6667 4.32432" stroke="#1F0D1A" stroke-width="1.5" stroke-linecap="round" stroke-linejoin="round"/>
<path d="M2.66675 14.3243L3.33341 13.6577" stroke="#1F0D1A" stroke-width="1.5" stroke-linecap="round" stroke-linejoin="round"/>
<path d="M2.66675 3.65765L3.33341 4.32432" stroke="#1F0D1A" stroke-width="1.5" stroke-linecap="round" stroke-linejoin="round"/>
<path d="M0.666687 8.99115H1.33335" stroke="#1F0D1A" stroke-width="1.5" stroke-linecap="round" stroke-linejoin="round"/>
</g>
<defs>
<clipPath id="clip0_11_2487">
<rect width="16" height="16" fill="white" transform="translate(0 0.99115)"/>
</clipPath>
</defs>
</svg>
